<svg width="20" height="20" viewBox="0 0 20 20" fill="none" xmlns="http://www.w3.org/2000/svg">
<rect width="20" height="20" rx="3.33333" fill="#003087"/>
<path opacity="0.68" d="M15.1829 6.72092C15.3456 5.68362 15.1818 4.97796 14.6208 4.33858C14.0032 3.63482 12.8874 3.33333 11.4597 3.33333H7.31571C7.024 3.33333 6.77547 3.5456 6.73011 3.83392L5.0044 14.7762C4.97045 14.9922 5.13735 15.1873 5.35573 15.1873H7.91408L7.73753 16.307C7.70779 16.496 7.85365 16.6667 8.04486 16.6667H10.2014C10.4565 16.6667 10.6738 16.481 10.7136 16.2288L10.7348 16.1191L11.141 13.5431L11.1672 13.4008C11.207 13.1487 11.4243 12.9628 11.6795 12.9628H12.002C14.0912 12.9628 15.727 12.1141 16.2049 9.65952C16.4046 8.6339 16.3013 7.77777 15.7731 7.17587C15.6136 6.99416 15.4147 6.84369 15.1829 6.72092Z" fill="white"/>
<path opacity="0.7" d="M15.1829 6.72092C15.3456 5.68362 15.1818 4.97796 14.6208 4.33858C14.0032 3.63482 12.8874 3.33333 11.4597 3.33333H7.31571C7.024 3.33333 6.77547 3.5456 6.73011 3.83392L5.0044 14.7762C4.97045 14.9922 5.13735 15.1873 5.35573 15.1873H7.91408L8.55672 11.1121L8.53676 11.2399C8.58225 10.9517 8.82847 10.7393 9.12032 10.7393H10.3363C12.7244 10.7393 14.5943 9.76912 15.1405 6.96333C15.1568 6.88049 15.1706 6.79996 15.1829 6.72092Z" fill="white"/>
<path d="M9.24717 6.73463C9.27447 6.56134 9.38583 6.41929 9.53562 6.34758C9.60366 6.31499 9.67985 6.29679 9.75957 6.29679H13.008C13.3928 6.29679 13.7516 6.32205 14.0796 6.37488C14.1733 6.38995 14.2646 6.40734 14.3533 6.42703C14.4418 6.44672 14.5279 6.46859 14.6112 6.49303C14.6529 6.50512 14.6937 6.51802 14.7341 6.53133C14.8951 6.58484 15.0452 6.64785 15.1832 6.72105C15.3459 5.68375 15.1821 4.9781 14.6211 4.33871C14.0032 3.63482 12.8874 3.33333 11.4597 3.33333H7.31571C7.024 3.33333 6.77547 3.5456 6.73011 3.83392L5.0044 14.7762C4.97045 14.9922 5.13735 15.1873 5.35573 15.1873H7.91408L8.55672 11.1121L9.24717 6.73463Z" fill="white"/>
</svg>
