<svg width="40" height="40" viewBox="0 0 40 40" fill="none" xmlns="http://www.w3.org/2000/svg">
<mask id="path-1-outside-1" maskUnits="userSpaceOnUse" x="-0.5" y="-0.5" width="41" height="41" fill="black">
<rect fill="white" x="-0.5" y="-0.5" width="41" height="41"/>
<path d="M24.1485 1.07745C21.4043 0.392937 18.5167 0.295124 15.7069 0.901701C15.4898 0.948578 15.3518 1.16261 15.3986 1.37976C15.4455 1.5969 15.6595 1.73494 15.8767 1.68806C18.5675 1.10716 21.3394 1.20294 23.976 1.86376C30.2812 3.44407 35.5295 8.1847 37.5284 14.3773C38.3015 16.7721 38.6299 19.3222 38.6956 21.9947C38.7011 22.2168 38.8856 22.3924 39.1077 22.3869C39.3297 22.3814 39.5053 22.197 39.4999 21.9749C39.4332 19.2657 39.101 16.65 38.3088 14.1761C36.2329 7.69301 30.7476 2.72352 24.1485 1.07745Z"/>
<path d="M13.6657 2.29443C13.8798 2.23536 14.0055 2.01386 13.9464 1.79971C13.8874 1.58556 13.6659 1.45985 13.4517 1.51893C10.5133 2.32957 6.37971 5.1306 3.82513 8.87257C3.82414 8.87403 3.82315 8.87549 3.82218 8.87696C1.57909 12.2573 0.172993 16.5053 0.565571 20.6274C0.565945 20.6313 0.566376 20.6352 0.566865 20.6391C0.66095 21.3918 0.818896 22.1431 0.977028 22.8952C1.31008 24.4794 1.64396 26.0675 1.38372 27.6809C1.34834 27.9002 1.49746 28.1066 1.71677 28.142C1.93608 28.1774 2.14255 28.0283 2.17793 27.809C2.44996 26.1225 2.11218 24.4776 1.77433 22.8323C1.61808 22.0714 1.46182 21.3104 1.36586 20.5452C0.996631 16.6502 2.32657 12.5868 4.49103 9.32396C6.94843 5.72563 10.9277 3.04975 13.6657 2.29443Z"/>
<path d="M18.944 3.19312C23.9941 2.88474 29.0431 4.94572 32.434 8.89422C32.5787 9.06275 32.5594 9.3167 32.3909 9.46143C32.2223 9.60616 31.9684 9.58687 31.8237 9.41833C28.5991 5.66347 23.7945 3.70213 18.9906 3.99625C18.9889 3.99635 18.9872 3.99644 18.9855 3.99653C12.9104 4.29048 7.22106 8.41173 5.1284 14.1866C5.05272 14.3955 4.82205 14.5034 4.61319 14.4278C4.40433 14.3521 4.29637 14.1214 4.37206 13.9125C6.57659 7.82892 12.5508 3.50355 18.944 3.19312Z"/>
<path d="M33.6594 10.6515C33.5355 10.4671 33.2856 10.418 33.1012 10.5418C32.9168 10.6657 32.8677 10.9156 32.9916 11.1C34.8713 13.899 35.6486 16.9448 35.9558 20.5593C35.9747 20.7807 36.1693 20.9449 36.3907 20.9261C36.6121 20.9073 36.7762 20.7126 36.7574 20.4912C36.4434 16.7977 35.6419 13.6034 33.6594 10.6515Z"/>
<path d="M36.4885 22.199C36.7102 22.1851 36.9012 22.3536 36.9151 22.5753C37.0666 25.0008 37.0681 27.745 36.7997 29.7729C36.7706 29.9932 36.5684 30.1481 36.3482 30.1189C36.128 30.0898 35.9731 29.8877 36.0022 29.6674C36.2608 27.7128 36.2622 25.0268 36.1121 22.6255C36.0983 22.4038 36.2668 22.2128 36.4885 22.199Z"/>
<path d="M4.52098 16.1349C4.57312 15.9189 4.44033 15.7016 4.22439 15.6494C4.00844 15.5973 3.79112 15.7301 3.73898 15.946C3.44375 17.1688 3.29048 18.425 3.28441 19.6823C3.27815 20.9782 3.51979 22.2431 3.76151 23.5085C3.95925 24.5437 4.15706 25.5792 4.21927 26.6322C4.30101 28.0155 4.01005 29.4008 3.50727 30.7192C3.42812 30.9268 3.53222 31.1592 3.73979 31.2384C3.94736 31.3175 4.17979 31.2134 4.25895 31.0059C4.79039 29.6122 5.11253 28.1111 5.02235 26.5848C4.96055 25.539 4.76277 24.5095 4.56506 23.4804C4.32381 22.2247 4.08268 20.9696 4.08887 19.6861C4.09465 18.4915 4.2403 17.2974 4.52098 16.1349Z"/>
<path d="M15.0755 7.19632C15.1583 7.40247 15.0583 7.63669 14.8521 7.71948C10.6821 9.39413 7.5506 13.1732 6.91177 17.6295C6.64488 19.4913 6.93323 21.3356 7.2215 23.1793C7.38384 24.2176 7.54615 25.2557 7.60926 26.2968C7.7461 28.5541 7.48898 31.0336 6.01988 33.2896C5.89866 33.4758 5.64947 33.5284 5.46332 33.4072C5.27716 33.286 5.22452 33.0368 5.34575 32.8506C6.68425 30.7952 6.93761 28.5121 6.80626 26.3454C6.74223 25.2891 6.58093 24.239 6.41973 23.1895C6.1305 21.3065 5.84161 19.4256 6.11544 17.5154C6.79754 12.7572 10.1326 8.74787 14.5524 6.97295C14.7585 6.89017 14.9927 6.99017 15.0755 7.19632Z"/>
<path d="M29.1964 9.48638C25.9066 6.40512 21.1385 5.3297 16.805 6.28018C16.5881 6.32778 16.4507 6.54226 16.4983 6.75925C16.5459 6.97624 16.7604 7.11357 16.9774 7.06597C21.0808 6.16594 25.5706 7.19264 28.6464 10.0735C31.239 12.5017 32.7444 16.035 33.1385 19.8898C33.1611 20.1108 33.3586 20.2717 33.5796 20.2491C33.8006 20.2265 33.9614 20.029 33.9388 19.808C33.5296 15.8052 31.9606 12.0754 29.1964 9.48638Z"/>
<path d="M33.8546 21.7236C34.0756 21.7009 34.2732 21.8617 34.2959 22.0827C34.6779 25.8021 34.5132 29.8195 33.9365 33.7059C33.9039 33.9256 33.6994 34.0773 33.4796 34.0447C33.2599 34.0121 33.1082 33.8075 33.1408 33.5878C33.7095 29.7554 33.8696 25.8063 33.4956 22.1649C33.4729 21.9439 33.6337 21.7463 33.8546 21.7236Z"/>
<path d="M19.8312 8.6747C13.6674 8.6747 8.65926 13.5922 8.65926 19.6719C8.65926 20.3214 8.71689 20.9577 8.82675 21.5764C8.86559 21.7952 9.07438 21.941 9.29311 21.9022C9.51184 21.8633 9.65767 21.6545 9.61883 21.4358C9.51712 20.8629 9.46373 20.2737 9.46373 19.6719C9.46373 14.0488 14.0992 9.47917 19.8312 9.47917C22.4215 9.47917 24.7881 10.4128 26.6046 11.9554C26.7739 12.0992 27.0278 12.0785 27.1716 11.9092C27.3154 11.7399 27.2947 11.486 27.1253 11.3422C25.1679 9.67987 22.618 8.6747 19.8312 8.6747Z"/>
<path d="M28.0266 12.842C28.1869 12.6882 28.4415 12.6935 28.5953 12.8539C30.3704 14.705 30.9387 17.6144 31.3146 20.056C31.7381 22.8063 31.8028 25.4894 31.8028 26.7334C31.8028 26.9555 31.6227 27.1356 31.4006 27.1356C31.1784 27.1356 30.9983 26.9555 30.9983 26.7334C30.9983 25.5095 30.9343 22.8718 30.5195 20.1785C30.1705 17.9117 29.6673 15.1341 28.0146 13.4107C27.8609 13.2503 27.8662 12.9957 28.0266 12.842Z"/>
<path d="M31.7007 29.037C31.7183 28.8155 31.5531 28.6217 31.3317 28.604C31.1102 28.5864 30.9164 28.7516 30.8988 28.973C30.7012 31.4507 30.4431 33.9257 29.9193 36.212C29.8697 36.4285 30.0051 36.6442 30.2216 36.6939C30.4381 36.7435 30.6539 36.6081 30.7035 36.3916C31.2411 34.0451 31.5026 31.5213 31.7007 29.037Z"/>
<path d="M9.4742 23.0569C9.69217 23.014 9.90366 23.1559 9.94658 23.3738C10.7971 27.6927 10.2095 31.6161 7.95731 35.0528C7.83555 35.2386 7.58622 35.2905 7.40041 35.1687C7.21461 35.047 7.16269 34.7976 7.28446 34.6118C9.40355 31.3783 9.97385 27.676 9.15726 23.5293C9.11434 23.3113 9.25624 23.0998 9.4742 23.0569Z"/>
<path d="M19.8312 11.2919C15.83 11.2919 11.9049 14.389 11.5043 18.2816C11.3289 19.9857 11.5753 21.6643 11.8218 23.3435C12.037 24.8099 12.2523 26.2767 12.1869 27.7615C12.0373 31.1597 11.0403 33.9647 9.32707 36.2751C9.19475 36.4535 9.23214 36.7054 9.41058 36.8378C9.58902 36.9701 9.84095 36.9327 9.97327 36.7542C11.7903 34.3038 12.8346 31.3409 12.9906 27.7969C13.0557 26.3188 12.8397 24.8566 12.6239 23.3954C12.3771 21.7245 12.1305 20.0547 12.3045 18.3639C12.6565 14.9444 16.1761 12.0963 19.8312 12.0963C21.5359 12.0963 25.9466 13.0194 27.3497 17.5899C28.2289 20.4541 28.4687 24.3304 28.2558 28.0962C28.0428 31.8615 27.3804 35.4628 26.4897 37.7721C26.4097 37.9794 26.5129 38.2122 26.7202 38.2921C26.9275 38.3721 27.1603 38.2689 27.2403 38.0616C28.1722 35.6455 28.8434 31.9531 29.0589 28.1416C29.2745 24.3306 29.0376 20.347 28.1187 17.3539C26.5613 12.2804 21.6792 11.2919 19.8312 11.2919Z"/>
<path d="M13.6411 35.0534C13.8271 35.1748 13.8796 35.424 13.7582 35.6101C13.5088 35.9925 13.2894 36.3926 13.07 36.7927C12.8505 37.1929 12.6311 37.5931 12.3816 37.9756C12.2602 38.1617 12.011 38.2141 11.8249 38.0928C11.6389 37.9714 11.5864 37.7222 11.7078 37.5361C11.9572 37.1537 12.1766 36.7536 12.396 36.3534C12.6155 35.9533 12.835 35.553 13.0844 35.1706C13.2058 34.9845 13.455 34.932 13.6411 35.0534Z"/>
<path d="M17.0853 15.4672C17.2699 15.3437 17.3195 15.0939 17.196 14.9093C17.0725 14.7246 16.8227 14.6751 16.638 14.7986C15.0452 15.8639 14.068 17.3289 14.068 19.475C14.068 20.753 14.2944 21.7975 14.5266 22.8689C14.8741 24.4721 15.1098 26.0719 15.0674 27.7186C15.016 29.7182 14.6247 31.5455 13.8726 33.2862C13.7845 33.4901 13.8784 33.7268 14.0824 33.8149C14.2863 33.9031 14.523 33.8092 14.6111 33.6052C15.4063 31.7647 15.8177 29.8356 15.8716 27.7393C15.9156 26.0281 15.6734 24.365 15.313 22.6988C15.0803 21.6227 14.8725 20.662 14.8725 19.475C14.8725 17.6362 15.6814 16.4062 17.0853 15.4672Z"/>
<path d="M18.6552 14.054C20.3244 13.7137 22.1205 14.1342 23.4426 15.2042C25.8041 17.1156 26.1181 20.6013 26.3726 23.4259L26.3856 23.5698C26.7145 27.2108 26.338 30.7474 25.5797 34.299C25.5333 34.5162 25.3196 34.6547 25.1023 34.6083C24.8851 34.562 24.7466 34.3482 24.793 34.131C25.5399 30.6326 25.904 27.1803 25.5844 23.6422C25.5738 23.525 25.5633 23.4063 25.5527 23.286L25.5525 23.2843C25.3264 20.7317 25.0433 17.5348 22.9365 15.8295C21.8062 14.9147 20.2559 14.5487 18.8159 14.8422C18.5982 14.8866 18.3858 14.7461 18.3414 14.5284C18.2971 14.3108 18.4376 14.0983 18.6552 14.054Z"/>
<path d="M25.0112 36.3005C25.066 36.0852 24.9359 35.8662 24.7206 35.8114C24.5054 35.7566 24.2864 35.8867 24.2316 36.102C23.9884 37.0571 23.6137 37.9193 23.1386 38.713C23.0245 38.9037 23.0866 39.1507 23.2772 39.2648C23.4678 39.3789 23.7148 39.3168 23.8289 39.1262C24.3409 38.2708 24.7474 37.3368 25.0112 36.3005Z"/>
<path d="M23.0442 30.4633C23.2648 30.4894 23.4225 30.6894 23.3964 30.91C23.0165 34.1203 22.1589 36.9834 20.7827 39.4667C20.675 39.661 20.4302 39.7312 20.2359 39.6235C20.0416 39.5158 19.9714 39.271 20.0791 39.0767C21.3961 36.7002 22.2276 33.941 22.5975 30.8155C22.6236 30.5949 22.8236 30.4372 23.0442 30.4633Z"/>
<path d="M22.9613 19.2641C22.6825 17.774 21.4036 16.6342 19.8511 16.6342C17.7487 16.6342 16.2737 18.7534 16.7935 20.7249C17.673 24.2051 17.8174 27.5593 17.222 30.7897L17.2216 30.7921C16.7049 33.6926 15.7127 36.3019 14.3593 38.5129C14.2433 38.7024 14.3029 38.95 14.4924 39.066C14.6818 39.182 14.9294 39.1224 15.0454 38.9329C16.4542 36.6314 17.4801 33.927 18.0134 30.9344C18.6315 27.5792 18.4784 24.1075 17.5729 20.5257L17.5718 20.5215C17.1819 19.0467 18.2687 17.4387 19.8511 17.4387C20.993 17.4387 21.9572 18.2788 22.1701 19.4093C22.7556 22.8054 23.0605 25.9546 22.8434 28.6661C22.8257 28.8875 22.9908 29.0814 23.2122 29.0992C23.4337 29.1169 23.6276 28.9518 23.6453 28.7303C23.8704 25.9199 23.5527 22.6931 22.9624 19.2697C22.962 19.2678 22.9617 19.266 22.9613 19.2641Z"/>
<path d="M18.6508 36.6852C18.8484 36.7868 18.9263 37.0293 18.8247 37.2268L17.7589 39.301C17.6574 39.4986 17.4149 39.5764 17.2173 39.4749C17.0197 39.3734 16.9419 39.1309 17.0434 38.9333L18.1092 36.8591C18.2107 36.6616 18.4532 36.5837 18.6508 36.6852Z"/>
<path d="M20.1502 19.6519C20.0994 19.4357 19.8829 19.3016 19.6667 19.3524C19.4504 19.4032 19.3163 19.6197 19.3671 19.8359C20.7235 25.61 20.5372 30.6803 18.885 34.9994C18.8056 35.2069 18.9095 35.4394 19.117 35.5188C19.3245 35.5982 19.557 35.4943 19.6364 35.2868C21.3591 30.7833 21.5342 25.5433 20.1502 19.6519Z"/>
</mask>
<path d="M24.1485 1.07745C21.4043 0.392937 18.5167 0.295124 15.7069 0.901701C15.4898 0.948578 15.3518 1.16261 15.3986 1.37976C15.4455 1.5969 15.6595 1.73494 15.8767 1.68806C18.5675 1.10716 21.3394 1.20294 23.976 1.86376C30.2812 3.44407 35.5295 8.1847 37.5284 14.3773C38.3015 16.7721 38.6299 19.3222 38.6956 21.9947C38.7011 22.2168 38.8856 22.3924 39.1077 22.3869C39.3297 22.3814 39.5053 22.197 39.4999 21.9749C39.4332 19.2657 39.101 16.65 38.3088 14.1761C36.2329 7.69301 30.7476 2.72352 24.1485 1.07745Z" fill="#0073E4"/>
<path d="M13.6657 2.29443C13.8798 2.23536 14.0055 2.01386 13.9464 1.79971C13.8874 1.58556 13.6659 1.45985 13.4517 1.51893C10.5133 2.32957 6.37971 5.1306 3.82513 8.87257C3.82414 8.87403 3.82315 8.87549 3.82218 8.87696C1.57909 12.2573 0.172993 16.5053 0.565571 20.6274C0.565945 20.6313 0.566376 20.6352 0.566865 20.6391C0.66095 21.3918 0.818896 22.1431 0.977028 22.8952C1.31008 24.4794 1.64396 26.0675 1.38372 27.6809C1.34834 27.9002 1.49746 28.1066 1.71677 28.142C1.93608 28.1774 2.14255 28.0283 2.17793 27.809C2.44996 26.1225 2.11218 24.4776 1.77433 22.8323C1.61808 22.0714 1.46182 21.3104 1.36586 20.5452C0.996631 16.6502 2.32657 12.5868 4.49103 9.32396C6.94843 5.72563 10.9277 3.04975 13.6657 2.29443Z" fill="#0073E4"/>
<path d="M18.944 3.19312C23.9941 2.88474 29.0431 4.94572 32.434 8.89422C32.5787 9.06275 32.5594 9.3167 32.3909 9.46143C32.2223 9.60616 31.9684 9.58687 31.8237 9.41833C28.5991 5.66347 23.7945 3.70213 18.9906 3.99625C18.9889 3.99635 18.9872 3.99644 18.9855 3.99653C12.9104 4.29048 7.22106 8.41173 5.1284 14.1866C5.05272 14.3955 4.82205 14.5034 4.61319 14.4278C4.40433 14.3521 4.29637 14.1214 4.37206 13.9125C6.57659 7.82892 12.5508 3.50355 18.944 3.19312Z" fill="#0073E4"/>
<path d="M33.6594 10.6515C33.5355 10.4671 33.2856 10.418 33.1012 10.5418C32.9168 10.6657 32.8677 10.9156 32.9916 11.1C34.8713 13.899 35.6486 16.9448 35.9558 20.5593C35.9747 20.7807 36.1693 20.9449 36.3907 20.9261C36.6121 20.9073 36.7762 20.7126 36.7574 20.4912C36.4434 16.7977 35.6419 13.6034 33.6594 10.6515Z" fill="#0073E4"/>
<path d="M36.4885 22.199C36.7102 22.1851 36.9012 22.3536 36.9151 22.5753C37.0666 25.0008 37.0681 27.745 36.7997 29.7729C36.7706 29.9932 36.5684 30.1481 36.3482 30.1189C36.128 30.0898 35.9731 29.8877 36.0022 29.6674C36.2608 27.7128 36.2622 25.0268 36.1121 22.6255C36.0983 22.4038 36.2668 22.2128 36.4885 22.199Z" fill="#0073E4"/>
<path d="M4.52098 16.1349C4.57312 15.9189 4.44033 15.7016 4.22439 15.6494C4.00844 15.5973 3.79112 15.7301 3.73898 15.946C3.44375 17.1688 3.29048 18.425 3.28441 19.6823C3.27815 20.9782 3.51979 22.2431 3.76151 23.5085C3.95925 24.5437 4.15706 25.5792 4.21927 26.6322C4.30101 28.0155 4.01005 29.4008 3.50727 30.7192C3.42812 30.9268 3.53222 31.1592 3.73979 31.2384C3.94736 31.3175 4.17979 31.2134 4.25895 31.0059C4.79039 29.6122 5.11253 28.1111 5.02235 26.5848C4.96055 25.539 4.76277 24.5095 4.56506 23.4804C4.32381 22.2247 4.08268 20.9696 4.08887 19.6861C4.09465 18.4915 4.2403 17.2974 4.52098 16.1349Z" fill="#0073E4"/>
<path d="M15.0755 7.19632C15.1583 7.40247 15.0583 7.63669 14.8521 7.71948C10.6821 9.39413 7.5506 13.1732 6.91177 17.6295C6.64488 19.4913 6.93323 21.3356 7.2215 23.1793C7.38384 24.2176 7.54615 25.2557 7.60926 26.2968C7.7461 28.5541 7.48898 31.0336 6.01988 33.2896C5.89866 33.4758 5.64947 33.5284 5.46332 33.4072C5.27716 33.286 5.22452 33.0368 5.34575 32.8506C6.68425 30.7952 6.93761 28.5121 6.80626 26.3454C6.74223 25.2891 6.58093 24.239 6.41973 23.1895C6.1305 21.3065 5.84161 19.4256 6.11544 17.5154C6.79754 12.7572 10.1326 8.74787 14.5524 6.97295C14.7585 6.89017 14.9927 6.99017 15.0755 7.19632Z" fill="#0073E4"/>
<path d="M29.1964 9.48638C25.9066 6.40512 21.1385 5.3297 16.805 6.28018C16.5881 6.32778 16.4507 6.54226 16.4983 6.75925C16.5459 6.97624 16.7604 7.11357 16.9774 7.06597C21.0808 6.16594 25.5706 7.19264 28.6464 10.0735C31.239 12.5017 32.7444 16.035 33.1385 19.8898C33.1611 20.1108 33.3586 20.2717 33.5796 20.2491C33.8006 20.2265 33.9614 20.029 33.9388 19.808C33.5296 15.8052 31.9606 12.0754 29.1964 9.48638Z" fill="#0073E4"/>
<path d="M33.8546 21.7236C34.0756 21.7009 34.2732 21.8617 34.2959 22.0827C34.6779 25.8021 34.5132 29.8195 33.9365 33.7059C33.9039 33.9256 33.6994 34.0773 33.4796 34.0447C33.2599 34.0121 33.1082 33.8075 33.1408 33.5878C33.7095 29.7554 33.8696 25.8063 33.4956 22.1649C33.4729 21.9439 33.6337 21.7463 33.8546 21.7236Z" fill="#0073E4"/>
<path d="M19.8312 8.6747C13.6674 8.6747 8.65926 13.5922 8.65926 19.6719C8.65926 20.3214 8.71689 20.9577 8.82675 21.5764C8.86559 21.7952 9.07438 21.941 9.29311 21.9022C9.51184 21.8633 9.65767 21.6545 9.61883 21.4358C9.51712 20.8629 9.46373 20.2737 9.46373 19.6719C9.46373 14.0488 14.0992 9.47917 19.8312 9.47917C22.4215 9.47917 24.7881 10.4128 26.6046 11.9554C26.7739 12.0992 27.0278 12.0785 27.1716 11.9092C27.3154 11.7399 27.2947 11.486 27.1253 11.3422C25.1679 9.67987 22.618 8.6747 19.8312 8.6747Z" fill="#0073E4"/>
<path d="M28.0266 12.842C28.1869 12.6882 28.4415 12.6935 28.5953 12.8539C30.3704 14.705 30.9387 17.6144 31.3146 20.056C31.7381 22.8063 31.8028 25.4894 31.8028 26.7334C31.8028 26.9555 31.6227 27.1356 31.4006 27.1356C31.1784 27.1356 30.9983 26.9555 30.9983 26.7334C30.9983 25.5095 30.9343 22.8718 30.5195 20.1785C30.1705 17.9117 29.6673 15.1341 28.0146 13.4107C27.8609 13.2503 27.8662 12.9957 28.0266 12.842Z" fill="#0073E4"/>
<path d="M31.7007 29.037C31.7183 28.8155 31.5531 28.6217 31.3317 28.604C31.1102 28.5864 30.9164 28.7516 30.8988 28.973C30.7012 31.4507 30.4431 33.9257 29.9193 36.212C29.8697 36.4285 30.0051 36.6442 30.2216 36.6939C30.4381 36.7435 30.6539 36.6081 30.7035 36.3916C31.2411 34.0451 31.5026 31.5213 31.7007 29.037Z" fill="#0073E4"/>
<path d="M9.4742 23.0569C9.69217 23.014 9.90366 23.1559 9.94658 23.3738C10.7971 27.6927 10.2095 31.6161 7.95731 35.0528C7.83555 35.2386 7.58622 35.2905 7.40041 35.1687C7.21461 35.047 7.16269 34.7976 7.28446 34.6118C9.40355 31.3783 9.97385 27.676 9.15726 23.5293C9.11434 23.3113 9.25624 23.0998 9.4742 23.0569Z" fill="#0073E4"/>
<path d="M19.8312 11.2919C15.83 11.2919 11.9049 14.389 11.5043 18.2816C11.3289 19.9857 11.5753 21.6643 11.8218 23.3435C12.037 24.8099 12.2523 26.2767 12.1869 27.7615C12.0373 31.1597 11.0403 33.9647 9.32707 36.2751C9.19475 36.4535 9.23214 36.7054 9.41058 36.8378C9.58902 36.9701 9.84095 36.9327 9.97327 36.7542C11.7903 34.3038 12.8346 31.3409 12.9906 27.7969C13.0557 26.3188 12.8397 24.8566 12.6239 23.3954C12.3771 21.7245 12.1305 20.0547 12.3045 18.3639C12.6565 14.9444 16.1761 12.0963 19.8312 12.0963C21.5359 12.0963 25.9466 13.0194 27.3497 17.5899C28.2289 20.4541 28.4687 24.3304 28.2558 28.0962C28.0428 31.8615 27.3804 35.4628 26.4897 37.7721C26.4097 37.9794 26.5129 38.2122 26.7202 38.2921C26.9275 38.3721 27.1603 38.2689 27.2403 38.0616C28.1722 35.6455 28.8434 31.9531 29.0589 28.1416C29.2745 24.3306 29.0376 20.347 28.1187 17.3539C26.5613 12.2804 21.6792 11.2919 19.8312 11.2919Z" fill="#0073E4"/>
<path d="M13.6411 35.0534C13.8271 35.1748 13.8796 35.424 13.7582 35.6101C13.5088 35.9925 13.2894 36.3926 13.07 36.7927C12.8505 37.1929 12.6311 37.5931 12.3816 37.9756C12.2602 38.1617 12.011 38.2141 11.8249 38.0928C11.6389 37.9714 11.5864 37.7222 11.7078 37.5361C11.9572 37.1537 12.1766 36.7536 12.396 36.3534C12.6155 35.9533 12.835 35.553 13.0844 35.1706C13.2058 34.9845 13.455 34.932 13.6411 35.0534Z" fill="#0073E4"/>
<path d="M17.0853 15.4672C17.2699 15.3437 17.3195 15.0939 17.196 14.9093C17.0725 14.7246 16.8227 14.6751 16.638 14.7986C15.0452 15.8639 14.068 17.3289 14.068 19.475C14.068 20.753 14.2944 21.7975 14.5266 22.8689C14.8741 24.4721 15.1098 26.0719 15.0674 27.7186C15.016 29.7182 14.6247 31.5455 13.8726 33.2862C13.7845 33.4901 13.8784 33.7268 14.0824 33.8149C14.2863 33.9031 14.523 33.8092 14.6111 33.6052C15.4063 31.7647 15.8177 29.8356 15.8716 27.7393C15.9156 26.0281 15.6734 24.365 15.313 22.6988C15.0803 21.6227 14.8725 20.662 14.8725 19.475C14.8725 17.6362 15.6814 16.4062 17.0853 15.4672Z" fill="#0073E4"/>
<path d="M18.6552 14.054C20.3244 13.7137 22.1205 14.1342 23.4426 15.2042C25.8041 17.1156 26.1181 20.6013 26.3726 23.4259L26.3856 23.5698C26.7145 27.2108 26.338 30.7474 25.5797 34.299C25.5333 34.5162 25.3196 34.6547 25.1023 34.6083C24.8851 34.562 24.7466 34.3482 24.793 34.131C25.5399 30.6326 25.904 27.1803 25.5844 23.6422C25.5738 23.525 25.5633 23.4063 25.5527 23.286L25.5525 23.2843C25.3264 20.7317 25.0433 17.5348 22.9365 15.8295C21.8062 14.9147 20.2559 14.5487 18.8159 14.8422C18.5982 14.8866 18.3858 14.7461 18.3414 14.5284C18.2971 14.3108 18.4376 14.0983 18.6552 14.054Z" fill="#0073E4"/>
<path d="M25.0112 36.3005C25.066 36.0852 24.9359 35.8662 24.7206 35.8114C24.5054 35.7566 24.2864 35.8867 24.2316 36.102C23.9884 37.0571 23.6137 37.9193 23.1386 38.713C23.0245 38.9037 23.0866 39.1507 23.2772 39.2648C23.4678 39.3789 23.7148 39.3168 23.8289 39.1262C24.3409 38.2708 24.7474 37.3368 25.0112 36.3005Z" fill="#0073E4"/>
<path d="M23.0442 30.4633C23.2648 30.4894 23.4225 30.6894 23.3964 30.91C23.0165 34.1203 22.1589 36.9834 20.7827 39.4667C20.675 39.661 20.4302 39.7312 20.2359 39.6235C20.0416 39.5158 19.9714 39.271 20.0791 39.0767C21.3961 36.7002 22.2276 33.941 22.5975 30.8155C22.6236 30.5949 22.8236 30.4372 23.0442 30.4633Z" fill="#0073E4"/>
<path d="M22.9613 19.2641C22.6825 17.774 21.4036 16.6342 19.8511 16.6342C17.7487 16.6342 16.2737 18.7534 16.7935 20.7249C17.673 24.2051 17.8174 27.5593 17.222 30.7897L17.2216 30.7921C16.7049 33.6926 15.7127 36.3019 14.3593 38.5129C14.2433 38.7024 14.3029 38.95 14.4924 39.066C14.6818 39.182 14.9294 39.1224 15.0454 38.9329C16.4542 36.6314 17.4801 33.927 18.0134 30.9344C18.6315 27.5792 18.4784 24.1075 17.5729 20.5257L17.5718 20.5215C17.1819 19.0467 18.2687 17.4387 19.8511 17.4387C20.993 17.4387 21.9572 18.2788 22.1701 19.4093C22.7556 22.8054 23.0605 25.9546 22.8434 28.6661C22.8257 28.8875 22.9908 29.0814 23.2122 29.0992C23.4337 29.1169 23.6276 28.9518 23.6453 28.7303C23.8704 25.9199 23.5527 22.6931 22.9624 19.2697C22.962 19.2678 22.9617 19.266 22.9613 19.2641Z" fill="#0073E4"/>
<path d="M18.6508 36.6852C18.8484 36.7868 18.9263 37.0293 18.8247 37.2268L17.7589 39.301C17.6574 39.4986 17.4149 39.5764 17.2173 39.4749C17.0197 39.3734 16.9419 39.1309 17.0434 38.9333L18.1092 36.8591C18.2107 36.6616 18.4532 36.5837 18.6508 36.6852Z" fill="#0073E4"/>
<path d="M20.1502 19.6519C20.0994 19.4357 19.8829 19.3016 19.6667 19.3524C19.4504 19.4032 19.3163 19.6197 19.3671 19.8359C20.7235 25.61 20.5372 30.6803 18.885 34.9994C18.8056 35.2069 18.9095 35.4394 19.117 35.5188C19.3245 35.5982 19.557 35.4943 19.6364 35.2868C21.3591 30.7833 21.5342 25.5433 20.1502 19.6519Z" fill="#0073E4"/>
<path d="M24.1485 1.07745C21.4043 0.392937 18.5167 0.295124 15.7069 0.901701C15.4898 0.948578 15.3518 1.16261 15.3986 1.37976C15.4455 1.5969 15.6595 1.73494 15.8767 1.68806C18.5675 1.10716 21.3394 1.20294 23.976 1.86376C30.2812 3.44407 35.5295 8.1847 37.5284 14.3773C38.3015 16.7721 38.6299 19.3222 38.6956 21.9947C38.7011 22.2168 38.8856 22.3924 39.1077 22.3869C39.3297 22.3814 39.5053 22.197 39.4999 21.9749C39.4332 19.2657 39.101 16.65 38.3088 14.1761C36.2329 7.69301 30.7476 2.72352 24.1485 1.07745Z" stroke="#0073E4" stroke-width="0.39174" stroke-miterlimit="10" stroke-linecap="round" stroke-linejoin="round" mask="url(#path-1-outside-1)"/>
<path d="M13.6657 2.29443C13.8798 2.23536 14.0055 2.01386 13.9464 1.79971C13.8874 1.58556 13.6659 1.45985 13.4517 1.51893C10.5133 2.32957 6.37971 5.1306 3.82513 8.87257C3.82414 8.87403 3.82315 8.87549 3.82218 8.87696C1.57909 12.2573 0.172993 16.5053 0.565571 20.6274C0.565945 20.6313 0.566376 20.6352 0.566865 20.6391C0.66095 21.3918 0.818896 22.1431 0.977028 22.8952C1.31008 24.4794 1.64396 26.0675 1.38372 27.6809C1.34834 27.9002 1.49746 28.1066 1.71677 28.142C1.93608 28.1774 2.14255 28.0283 2.17793 27.809C2.44996 26.1225 2.11218 24.4776 1.77433 22.8323C1.61808 22.0714 1.46182 21.3104 1.36586 20.5452C0.996631 16.6502 2.32657 12.5868 4.49103 9.32396C6.94843 5.72563 10.9277 3.04975 13.6657 2.29443Z" stroke="#0073E4" stroke-width="0.39174" stroke-miterlimit="10" stroke-linecap="round" stroke-linejoin="round" mask="url(#path-1-outside-1)"/>
<path d="M18.944 3.19312C23.9941 2.88474 29.0431 4.94572 32.434 8.89422C32.5787 9.06275 32.5594 9.3167 32.3909 9.46143C32.2223 9.60616 31.9684 9.58687 31.8237 9.41833C28.5991 5.66347 23.7945 3.70213 18.9906 3.99625C18.9889 3.99635 18.9872 3.99644 18.9855 3.99653C12.9104 4.29048 7.22106 8.41173 5.1284 14.1866C5.05272 14.3955 4.82205 14.5034 4.61319 14.4278C4.40433 14.3521 4.29637 14.1214 4.37206 13.9125C6.57659 7.82892 12.5508 3.50355 18.944 3.19312Z" stroke="#0073E4" stroke-width="0.39174" stroke-miterlimit="10" stroke-linecap="round" stroke-linejoin="round" mask="url(#path-1-outside-1)"/>
<path d="M33.6594 10.6515C33.5355 10.4671 33.2856 10.418 33.1012 10.5418C32.9168 10.6657 32.8677 10.9156 32.9916 11.1C34.8713 13.899 35.6486 16.9448 35.9558 20.5593C35.9747 20.7807 36.1693 20.9449 36.3907 20.9261C36.6121 20.9073 36.7762 20.7126 36.7574 20.4912C36.4434 16.7977 35.6419 13.6034 33.6594 10.6515Z" stroke="#0073E4" stroke-width="0.39174" stroke-miterlimit="10" stroke-linecap="round" stroke-linejoin="round" mask="url(#path-1-outside-1)"/>
<path d="M36.4885 22.199C36.7102 22.1851 36.9012 22.3536 36.9151 22.5753C37.0666 25.0008 37.0681 27.745 36.7997 29.7729C36.7706 29.9932 36.5684 30.1481 36.3482 30.1189C36.128 30.0898 35.9731 29.8877 36.0022 29.6674C36.2608 27.7128 36.2622 25.0268 36.1121 22.6255C36.0983 22.4038 36.2668 22.2128 36.4885 22.199Z" stroke="#0073E4" stroke-width="0.39174" stroke-miterlimit="10" stroke-linecap="round" stroke-linejoin="round" mask="url(#path-1-outside-1)"/>
<path d="M4.52098 16.1349C4.57312 15.9189 4.44033 15.7016 4.22439 15.6494C4.00844 15.5973 3.79112 15.7301 3.73898 15.946C3.44375 17.1688 3.29048 18.425 3.28441 19.6823C3.27815 20.9782 3.51979 22.2431 3.76151 23.5085C3.95925 24.5437 4.15706 25.5792 4.21927 26.6322C4.30101 28.0155 4.01005 29.4008 3.50727 30.7192C3.42812 30.9268 3.53222 31.1592 3.73979 31.2384C3.94736 31.3175 4.17979 31.2134 4.25895 31.0059C4.79039 29.6122 5.11253 28.1111 5.02235 26.5848C4.96055 25.539 4.76277 24.5095 4.56506 23.4804C4.32381 22.2247 4.08268 20.9696 4.08887 19.6861C4.09465 18.4915 4.2403 17.2974 4.52098 16.1349Z" stroke="#0073E4" stroke-width="0.39174" stroke-miterlimit="10" stroke-linecap="round" stroke-linejoin="round" mask="url(#path-1-outside-1)"/>
<path d="M15.0755 7.19632C15.1583 7.40247 15.0583 7.63669 14.8521 7.71948C10.6821 9.39413 7.5506 13.1732 6.91177 17.6295C6.64488 19.4913 6.93323 21.3356 7.2215 23.1793C7.38384 24.2176 7.54615 25.2557 7.60926 26.2968C7.7461 28.5541 7.48898 31.0336 6.01988 33.2896C5.89866 33.4758 5.64947 33.5284 5.46332 33.4072C5.27716 33.286 5.22452 33.0368 5.34575 32.8506C6.68425 30.7952 6.93761 28.5121 6.80626 26.3454C6.74223 25.2891 6.58093 24.239 6.41973 23.1895C6.1305 21.3065 5.84161 19.4256 6.11544 17.5154C6.79754 12.7572 10.1326 8.74787 14.5524 6.97295C14.7585 6.89017 14.9927 6.99017 15.0755 7.19632Z" stroke="#0073E4" stroke-width="0.39174" stroke-miterlimit="10" stroke-linecap="round" stroke-linejoin="round" mask="url(#path-1-outside-1)"/>
<path d="M29.1964 9.48638C25.9066 6.40512 21.1385 5.3297 16.805 6.28018C16.5881 6.32778 16.4507 6.54226 16.4983 6.75925C16.5459 6.97624 16.7604 7.11357 16.9774 7.06597C21.0808 6.16594 25.5706 7.19264 28.6464 10.0735C31.239 12.5017 32.7444 16.035 33.1385 19.8898C33.1611 20.1108 33.3586 20.2717 33.5796 20.2491C33.8006 20.2265 33.9614 20.029 33.9388 19.808C33.5296 15.8052 31.9606 12.0754 29.1964 9.48638Z" stroke="#0073E4" stroke-width="0.39174" stroke-miterlimit="10" stroke-linecap="round" stroke-linejoin="round" mask="url(#path-1-outside-1)"/>
<path d="M33.8546 21.7236C34.0756 21.7009 34.2732 21.8617 34.2959 22.0827C34.6779 25.8021 34.5132 29.8195 33.9365 33.7059C33.9039 33.9256 33.6994 34.0773 33.4796 34.0447C33.2599 34.0121 33.1082 33.8075 33.1408 33.5878C33.7095 29.7554 33.8696 25.8063 33.4956 22.1649C33.4729 21.9439 33.6337 21.7463 33.8546 21.7236Z" stroke="#0073E4" stroke-width="0.39174" stroke-miterlimit="10" stroke-linecap="round" stroke-linejoin="round" mask="url(#path-1-outside-1)"/>
<path d="M19.8312 8.6747C13.6674 8.6747 8.65926 13.5922 8.65926 19.6719C8.65926 20.3214 8.71689 20.9577 8.82675 21.5764C8.86559 21.7952 9.07438 21.941 9.29311 21.9022C9.51184 21.8633 9.65767 21.6545 9.61883 21.4358C9.51712 20.8629 9.46373 20.2737 9.46373 19.6719C9.46373 14.0488 14.0992 9.47917 19.8312 9.47917C22.4215 9.47917 24.7881 10.4128 26.6046 11.9554C26.7739 12.0992 27.0278 12.0785 27.1716 11.9092C27.3154 11.7399 27.2947 11.486 27.1253 11.3422C25.1679 9.67987 22.618 8.6747 19.8312 8.6747Z" stroke="#0073E4" stroke-width="0.39174" stroke-miterlimit="10" stroke-linecap="round" stroke-linejoin="round" mask="url(#path-1-outside-1)"/>
<path d="M28.0266 12.842C28.1869 12.6882 28.4415 12.6935 28.5953 12.8539C30.3704 14.705 30.9387 17.6144 31.3146 20.056C31.7381 22.8063 31.8028 25.4894 31.8028 26.7334C31.8028 26.9555 31.6227 27.1356 31.4006 27.1356C31.1784 27.1356 30.9983 26.9555 30.9983 26.7334C30.9983 25.5095 30.9343 22.8718 30.5195 20.1785C30.1705 17.9117 29.6673 15.1341 28.0146 13.4107C27.8609 13.2503 27.8662 12.9957 28.0266 12.842Z" stroke="#0073E4" stroke-width="0.39174" stroke-miterlimit="10" stroke-linecap="round" stroke-linejoin="round" mask="url(#path-1-outside-1)"/>
<path d="M31.7007 29.037C31.7183 28.8155 31.5531 28.6217 31.3317 28.604C31.1102 28.5864 30.9164 28.7516 30.8988 28.973C30.7012 31.4507 30.4431 33.9257 29.9193 36.212C29.8697 36.4285 30.0051 36.6442 30.2216 36.6939C30.4381 36.7435 30.6539 36.6081 30.7035 36.3916C31.2411 34.0451 31.5026 31.5213 31.7007 29.037Z" stroke="#0073E4" stroke-width="0.39174" stroke-miterlimit="10" stroke-linecap="round" stroke-linejoin="round" mask="url(#path-1-outside-1)"/>
<path d="M9.4742 23.0569C9.69217 23.014 9.90366 23.1559 9.94658 23.3738C10.7971 27.6927 10.2095 31.6161 7.95731 35.0528C7.83555 35.2386 7.58622 35.2905 7.40041 35.1687C7.21461 35.047 7.16269 34.7976 7.28446 34.6118C9.40355 31.3783 9.97385 27.676 9.15726 23.5293C9.11434 23.3113 9.25624 23.0998 9.4742 23.0569Z" stroke="#0073E4" stroke-width="0.39174" stroke-miterlimit="10" stroke-linecap="round" stroke-linejoin="round" mask="url(#path-1-outside-1)"/>
<path d="M19.8312 11.2919C15.83 11.2919 11.9049 14.389 11.5043 18.2816C11.3289 19.9857 11.5753 21.6643 11.8218 23.3435C12.037 24.8099 12.2523 26.2767 12.1869 27.7615C12.0373 31.1597 11.0403 33.9647 9.32707 36.2751C9.19475 36.4535 9.23214 36.7054 9.41058 36.8378C9.58902 36.9701 9.84095 36.9327 9.97327 36.7542C11.7903 34.3038 12.8346 31.3409 12.9906 27.7969C13.0557 26.3188 12.8397 24.8566 12.6239 23.3954C12.3771 21.7245 12.1305 20.0547 12.3045 18.3639C12.6565 14.9444 16.1761 12.0963 19.8312 12.0963C21.5359 12.0963 25.9466 13.0194 27.3497 17.5899C28.2289 20.4541 28.4687 24.3304 28.2558 28.0962C28.0428 31.8615 27.3804 35.4628 26.4897 37.7721C26.4097 37.9794 26.5129 38.2122 26.7202 38.2921C26.9275 38.3721 27.1603 38.2689 27.2403 38.0616C28.1722 35.6455 28.8434 31.9531 29.0589 28.1416C29.2745 24.3306 29.0376 20.347 28.1187 17.3539C26.5613 12.2804 21.6792 11.2919 19.8312 11.2919Z" stroke="#0073E4" stroke-width="0.39174" stroke-miterlimit="10" stroke-linecap="round" stroke-linejoin="round" mask="url(#path-1-outside-1)"/>
<path d="M13.6411 35.0534C13.8271 35.1748 13.8796 35.424 13.7582 35.6101C13.5088 35.9925 13.2894 36.3926 13.07 36.7927C12.8505 37.1929 12.6311 37.5931 12.3816 37.9756C12.2602 38.1617 12.011 38.2141 11.8249 38.0928C11.6389 37.9714 11.5864 37.7222 11.7078 37.5361C11.9572 37.1537 12.1766 36.7536 12.396 36.3534C12.6155 35.9533 12.835 35.553 13.0844 35.1706C13.2058 34.9845 13.455 34.932 13.6411 35.0534Z" stroke="#0073E4" stroke-width="0.39174" stroke-miterlimit="10" stroke-linecap="round" stroke-linejoin="round" mask="url(#path-1-outside-1)"/>
<path d="M17.0853 15.4672C17.2699 15.3437 17.3195 15.0939 17.196 14.9093C17.0725 14.7246 16.8227 14.6751 16.638 14.7986C15.0452 15.8639 14.068 17.3289 14.068 19.475C14.068 20.753 14.2944 21.7975 14.5266 22.8689C14.8741 24.4721 15.1098 26.0719 15.0674 27.7186C15.016 29.7182 14.6247 31.5455 13.8726 33.2862C13.7845 33.4901 13.8784 33.7268 14.0824 33.8149C14.2863 33.9031 14.523 33.8092 14.6111 33.6052C15.4063 31.7647 15.8177 29.8356 15.8716 27.7393C15.9156 26.0281 15.6734 24.365 15.313 22.6988C15.0803 21.6227 14.8725 20.662 14.8725 19.475C14.8725 17.6362 15.6814 16.4062 17.0853 15.4672Z" stroke="#0073E4" stroke-width="0.39174" stroke-miterlimit="10" stroke-linecap="round" stroke-linejoin="round" mask="url(#path-1-outside-1)"/>
<path d="M18.6552 14.054C20.3244 13.7137 22.1205 14.1342 23.4426 15.2042C25.8041 17.1156 26.1181 20.6013 26.3726 23.4259L26.3856 23.5698C26.7145 27.2108 26.338 30.7474 25.5797 34.299C25.5333 34.5162 25.3196 34.6547 25.1023 34.6083C24.8851 34.562 24.7466 34.3482 24.793 34.131C25.5399 30.6326 25.904 27.1803 25.5844 23.6422C25.5738 23.525 25.5633 23.4063 25.5527 23.286L25.5525 23.2843C25.3264 20.7317 25.0433 17.5348 22.9365 15.8295C21.8062 14.9147 20.2559 14.5487 18.8159 14.8422C18.5982 14.8866 18.3858 14.7461 18.3414 14.5284C18.2971 14.3108 18.4376 14.0983 18.6552 14.054Z" stroke="#0073E4" stroke-width="0.39174" stroke-miterlimit="10" stroke-linecap="round" stroke-linejoin="round" mask="url(#path-1-outside-1)"/>
<path d="M25.0112 36.3005C25.066 36.0852 24.9359 35.8662 24.7206 35.8114C24.5054 35.7566 24.2864 35.8867 24.2316 36.102C23.9884 37.0571 23.6137 37.9193 23.1386 38.713C23.0245 38.9037 23.0866 39.1507 23.2772 39.2648C23.4678 39.3789 23.7148 39.3168 23.8289 39.1262C24.3409 38.2708 24.7474 37.3368 25.0112 36.3005Z" stroke="#0073E4" stroke-width="0.39174" stroke-miterlimit="10" stroke-linecap="round" stroke-linejoin="round" mask="url(#path-1-outside-1)"/>
<path d="M23.0442 30.4633C23.2648 30.4894 23.4225 30.6894 23.3964 30.91C23.0165 34.1203 22.1589 36.9834 20.7827 39.4667C20.675 39.661 20.4302 39.7312 20.2359 39.6235C20.0416 39.5158 19.9714 39.271 20.0791 39.0767C21.3961 36.7002 22.2276 33.941 22.5975 30.8155C22.6236 30.5949 22.8236 30.4372 23.0442 30.4633Z" stroke="#0073E4" stroke-width="0.39174" stroke-miterlimit="10" stroke-linecap="round" stroke-linejoin="round" mask="url(#path-1-outside-1)"/>
<path d="M22.9613 19.2641C22.6825 17.774 21.4036 16.6342 19.8511 16.6342C17.7487 16.6342 16.2737 18.7534 16.7935 20.7249C17.673 24.2051 17.8174 27.5593 17.222 30.7897L17.2216 30.7921C16.7049 33.6926 15.7127 36.3019 14.3593 38.5129C14.2433 38.7024 14.3029 38.95 14.4924 39.066C14.6818 39.182 14.9294 39.1224 15.0454 38.9329C16.4542 36.6314 17.4801 33.927 18.0134 30.9344C18.6315 27.5792 18.4784 24.1075 17.5729 20.5257L17.5718 20.5215C17.1819 19.0467 18.2687 17.4387 19.8511 17.4387C20.993 17.4387 21.9572 18.2788 22.1701 19.4093C22.7556 22.8054 23.0605 25.9546 22.8434 28.6661C22.8257 28.8875 22.9908 29.0814 23.2122 29.0992C23.4337 29.1169 23.6276 28.9518 23.6453 28.7303C23.8704 25.9199 23.5527 22.6931 22.9624 19.2697C22.962 19.2678 22.9617 19.266 22.9613 19.2641Z" stroke="#0073E4" stroke-width="0.39174" stroke-miterlimit="10" stroke-linecap="round" stroke-linejoin="round" mask="url(#path-1-outside-1)"/>
<path d="M18.6508 36.6852C18.8484 36.7868 18.9263 37.0293 18.8247 37.2268L17.7589 39.301C17.6574 39.4986 17.4149 39.5764 17.2173 39.4749C17.0197 39.3734 16.9419 39.1309 17.0434 38.9333L18.1092 36.8591C18.2107 36.6616 18.4532 36.5837 18.6508 36.6852Z" stroke="#0073E4" stroke-width="0.39174" stroke-miterlimit="10" stroke-linecap="round" stroke-linejoin="round" mask="url(#path-1-outside-1)"/>
<path d="M20.1502 19.6519C20.0994 19.4357 19.8829 19.3016 19.6667 19.3524C19.4504 19.4032 19.3163 19.6197 19.3671 19.8359C20.7235 25.61 20.5372 30.6803 18.885 34.9994C18.8056 35.2069 18.9095 35.4394 19.117 35.5188C19.3245 35.5982 19.557 35.4943 19.6364 35.2868C21.3591 30.7833 21.5342 25.5433 20.1502 19.6519Z" stroke="#0073E4" stroke-width="0.39174" stroke-miterlimit="10" stroke-linecap="round" stroke-linejoin="round" mask="url(#path-1-outside-1)"/>
</svg>
