<svg width="14" height="15" viewBox="0 0 14 15" fill="none" xmlns="http://www.w3.org/2000/svg">
<path d="M7.00004 0.833328C3.32004 0.833328 0.333374 3.81999 0.333374 7.5C0.333374 11.18 3.32004 14.1667 7.00004 14.1667C10.68 14.1667 13.6667 11.18 13.6667 7.5C13.6667 3.81999 10.68 0.833328 7.00004 0.833328ZM7.00004 2.83333C8.10671 2.83333 9.00004 3.72666 9.00004 4.83333C9.00004 5.93999 8.10671 6.83333 7.00004 6.83333C5.89337 6.83333 5.00004 5.93999 5.00004 4.83333C5.00004 3.72666 5.89337 2.83333 7.00004 2.83333ZM7.00004 12.3C5.33337 12.3 3.86004 11.4467 3.00004 10.1533C3.02004 8.82666 5.66671 8.09999 7.00004 8.09999C8.32671 8.09999 10.98 8.82666 11 10.1533C10.14 11.4467 8.66671 12.3 7.00004 12.3Z" fill="#8D8D8D"/>
</svg>
