<svg width="16" height="10" viewBox="0 0 16 10" fill="none" xmlns="http://www.w3.org/2000/svg">
<path d="M14.6667 9.66659H10.6667V6.99992H8.88C8.12 8.61325 6.48 9.66659 4.66667 9.66659C2.09333 9.66659 0 7.57325 0 4.99992C0 2.42659 2.09333 0.333252 4.66667 0.333252C6.48 0.333252 8.11333 1.38659 8.88 2.99992H16V6.99992H14.6667V9.66659ZM12 8.33325H13.3333V5.66659H14.6667V4.33325H7.96L7.80667 3.88659C7.34 2.55992 6.07333 1.66659 4.66667 1.66659C2.82667 1.66659 1.33333 3.15992 1.33333 4.99992C1.33333 6.83992 2.82667 8.33325 4.66667 8.33325C6.07333 8.33325 7.34 7.43992 7.80667 6.11325L7.96 5.66659H12V8.33325ZM4.66667 6.99992C3.56667 6.99992 2.66667 6.09992 2.66667 4.99992C2.66667 3.89992 3.56667 2.99992 4.66667 2.99992C5.76667 2.99992 6.66667 3.89992 6.66667 4.99992C6.66667 6.09992 5.76667 6.99992 4.66667 6.99992ZM4.66667 4.33325C4.3 4.33325 4 4.63325 4 4.99992C4 5.36659 4.3 5.66659 4.66667 5.66659C5.03333 5.66659 5.33333 5.36659 5.33333 4.99992C5.33333 4.63325 5.03333 4.33325 4.66667 4.33325Z" fill="#0073E4"/>
</svg>
