<svg width="20" height="20" viewBox="0 0 20 20" fill="none" xmlns="http://www.w3.org/2000/svg">
<rect width="20" height="20" rx="3.33333" fill="#00D632"/>
<path d="M13.2719 7.43753C13.4281 7.59378 13.6875 7.59378 13.8344 7.43753L14.6156 6.62503C14.7812 6.46878 14.7719 6.18753 14.5969 6.01878C13.983 5.48406 13.2692 5.07621 12.4969 4.81878L12.7437 3.63128C12.7969 3.37191 12.6031 3.12816 12.3437 3.12816H10.8312C10.7367 3.12917 10.6454 3.16263 10.5726 3.22293C10.4997 3.28323 10.4499 3.36672 10.4312 3.45941L10.2125 4.51566C8.19999 4.61878 6.49374 5.64066 6.49374 7.73441C6.49374 9.54691 7.90311 10.325 9.39374 10.8594C10.8031 11.3969 11.55 11.5969 11.55 12.3532C11.55 13.1313 10.8062 13.5875 9.70624 13.5875C8.70624 13.5875 7.65624 13.2532 6.84374 12.4375C6.806 12.3997 6.76119 12.3698 6.71186 12.3493C6.66252 12.3288 6.60964 12.3183 6.55624 12.3183C6.50283 12.3183 6.44995 12.3288 6.40061 12.3493C6.35128 12.3698 6.30647 12.3997 6.26874 12.4375L5.42499 13.2813C5.3456 13.3609 5.30103 13.4688 5.30103 13.5813C5.30103 13.6937 5.3456 13.8016 5.42499 13.8813C6.08124 14.5282 6.91249 14.9969 7.85999 15.2563L7.62874 16.3719C7.57561 16.6313 7.76624 16.8719 8.02561 16.875L9.54124 16.8875C9.63685 16.888 9.72964 16.8552 9.80374 16.7947C9.87784 16.7343 9.92865 16.65 9.94749 16.5563L10.1662 15.4969C12.5875 15.3344 14.0625 14 14.0625 12.0532C14.0625 10.2594 12.5937 9.50316 10.8125 8.88753C9.79374 8.50941 8.91249 8.25003 8.91249 7.47191C8.91249 6.71566 9.73436 6.41566 10.5594 6.41566C11.6094 6.41566 12.6187 6.85003 13.2781 7.44378L13.2719 7.43753Z" fill="white"/>
</svg>
