<svg width="16" height="16" viewBox="0 0 16 16" fill="none" xmlns="http://www.w3.org/2000/svg">
<path d="M7.99996 10.6667C6.52663 10.6667 5.33329 9.47333 5.33329 7.99999C5.33329 6.52666 6.52663 5.33333 7.99996 5.33333C9.47329 5.33333 10.6666 6.52666 10.6666 7.99999C10.6666 9.47333 9.47329 10.6667 7.99996 10.6667ZM13.96 8.66666C13.6533 11.4467 11.4466 13.6533 8.66663 13.96V15.3333H7.33329V13.96C4.55329 13.6533 2.34663 11.4467 2.03996 8.66666H0.666626V7.33333H2.03996C2.34663 4.55333 4.55329 2.34666 7.33329 2.03999V0.666661H8.66663V2.03999C11.4466 2.34666 13.6533 4.55333 13.96 7.33333H15.3333V8.66666H13.96ZM7.99996 3.33333C5.41996 3.33333 3.33329 5.41999 3.33329 7.99999C3.33329 10.58 5.41996 12.6667 7.99996 12.6667C10.58 12.6667 12.6666 10.58 12.6666 7.99999C12.6666 5.41999 10.58 3.33333 7.99996 3.33333Z" fill="#8D8D8D"/>
</svg>
