<svg width="24" height="14" viewBox="0 0 24 14" fill="none" xmlns="http://www.w3.org/2000/svg">
<path d="M20.516 8.453L24 7.562L22.068 0L18.542 0.891L18.738 1.644C16.942 1.884 16.194 1.418 14.279 0.418C13.781 0.161 13.307 0 12.871 0C12.279 0 11.763 0.268 11.368 0.714L10.877 1.266C8.921 -0.259 7.699 0.861 6.372 1.35C6.008 1.485 5.579 1.535 5.285 1.552L5.458 0.89L1.932 0L0 7.562L3.484 8.453L3.666 7.758C3.982 7.818 5.175 8.049 5.399 8.105C4.75 9.16 5.409 10.462 6.598 10.6C6.824 11.145 7.339 11.532 7.938 11.603C8.163 12.147 8.674 12.531 9.27 12.6C9.6 13.415 10.575 13.867 11.502 13.463C11.854 13.817 12.343 14 12.858 14C13.561 14 14.207 13.656 14.532 12.988C15.106 12.868 15.584 12.49 15.828 11.978C16.38 11.863 16.859 11.508 17.113 10.976C17.872 10.822 18.491 10.203 18.57 9.374C18.601 9.062 18.54 8.75 18.415 8.464C18.704 8.304 19.857 7.817 20.301 7.631L20.516 8.453ZM21.202 1.457L22.54 6.697L21.375 6.995L20.009 1.758L21.202 1.457ZM2.625 6.995L1.46 6.697L2.798 1.457L3.991 1.758L2.625 6.995ZM6.391 9.479C6.097 9.258 6.06 8.834 6.311 8.537L6.921 7.788C7.17 7.49 7.611 7.425 7.907 7.648C8.202 7.871 8.237 8.292 7.987 8.592L7.378 9.339C7.128 9.638 6.685 9.7 6.391 9.479ZM7.727 10.479C7.431 10.255 7.39 9.843 7.641 9.543L8.257 8.789C8.507 8.489 8.947 8.426 9.241 8.647C9.536 8.869 9.571 9.293 9.323 9.59L8.706 10.345C8.456 10.646 8.024 10.701 7.727 10.479ZM9.063 11.479C8.768 11.257 8.73 10.834 8.981 10.534L9.59 9.789C9.841 9.49 10.28 9.425 10.576 9.647C10.871 9.87 10.907 10.292 10.656 10.591L10.048 11.338C9.798 11.638 9.357 11.699 9.063 11.479ZM11.993 11.587L11.383 12.337C11.132 12.639 10.692 12.7 10.397 12.479C10.102 12.257 10.066 11.834 10.315 11.536L10.927 10.785C11.179 10.487 11.62 10.423 11.914 10.646C12.21 10.867 12.246 11.29 11.993 11.587ZM13.273 12.697C13.153 12.789 13.007 12.835 12.858 12.835C12.698 12.835 12.543 12.766 12.41 12.659L12.768 12.218C12.927 12.031 13.037 11.806 13.1 11.568L13.34 11.78C13.591 12.065 13.558 12.474 13.273 12.697ZM17.146 9.68C16.857 9.902 16.427 9.848 16.179 9.566L14.235 7.897C14.075 7.759 13.865 8.004 14.027 8.139L15.923 9.767C16.171 10.052 16.14 10.463 15.855 10.683C15.579 10.901 15.143 10.864 14.886 10.569L13.395 9.261C13.234 9.122 13.025 9.363 13.182 9.502L14.639 10.781C14.888 11.066 14.85 11.467 14.564 11.69C14.284 11.908 13.856 11.874 13.604 11.584L13.154 11.182L13.152 10.957C13.063 10.177 12.441 9.605 11.703 9.523C11.479 8.976 10.966 8.593 10.368 8.525C10.15 7.99 9.642 7.595 9.034 7.525C8.637 6.55 7.398 6.191 6.485 6.846C6.06 6.713 4.633 6.396 4.051 6.282L4.887 3.078C5.67 3.041 6.581 2.946 7.789 2.373C8.653 1.962 9.067 1.774 9.856 2.36C9.349 2.867 8.829 3.315 8.294 3.628C7.814 3.908 7.606 4.465 7.763 5.047C7.944 5.715 8.619 6.39 9.723 6.39C10.827 6.39 12.647 5.376 13.002 4.888C14.474 6.279 15.904 7.572 17.145 8.684C17.495 9.074 17.43 9.46 17.146 9.68ZM17.672 7.143C16.835 6.39 14.944 4.68 14.265 4C13.976 3.712 13.574 3.381 13.021 3.381C12.531 3.381 12.143 3.648 11.893 3.849C11.32 4.311 9.874 5.227 9.301 4.769C10.462 4.015 11.509 2.826 12.493 1.706C12.733 1.433 13.08 1.487 13.593 1.75C15.746 2.875 16.6 3.416 19.131 3.144L19.91 6.131C19.41 6.33 18.087 6.911 17.672 7.143Z" fill="#0073E4"/>
</svg>
