<svg width="20" height="20" viewBox="0 0 20 20" fill="none" xmlns="http://www.w3.org/2000/svg">
<rect width="20" height="20" rx="3.33333" fill="#85BB65"/>
<g clip-path="url(#clip0)">
<rect opacity="0.5" x="1.66663" y="4.16667" width="16.6667" height="1.66667" fill="white"/>
<rect opacity="0.5" x="1.66663" y="14.1667" width="16.6667" height="1.66667" fill="white"/>
<path d="M8 7.33336H9.33333V12.6667H8V7.33336ZM12.6667 7.33336H10.6667C10.3 7.33336 10 7.63336 10 8.00003V12C10 12.3667 10.3 12.6667 10.6667 12.6667H12.6667C13.0333 12.6667 13.3333 12.3667 13.3333 12V8.00003C13.3333 7.63336 13.0333 7.33336 12.6667 7.33336ZM12 11.3334H11.3333V8.66669H12V11.3334ZM16.6667 7.33336H14.6667C14.3 7.33336 14 7.63336 14 8.00003V12C14 12.3667 14.3 12.6667 14.6667 12.6667H16.6667C17.0333 12.6667 17.3333 12.3667 17.3333 12V8.00003C17.3333 7.63336 17.0333 7.33336 16.6667 7.33336ZM16 11.3334H15.3333V8.66669H16V11.3334Z" fill="white"/>
<path d="M5.16667 13.3333H3.83333V12.6667H2.5V11.3333H5.16667V10.6667H3.16667C2.8 10.6667 2.5 10.3667 2.5 10V8.00001C2.5 7.63334 2.8 7.33334 3.16667 7.33334H3.83333V6.66667H5.16667V7.33334H6.5V8.66667H3.83333V9.33334H5.83333C6.2 9.33334 6.5 9.63334 6.5 10V12C6.5 12.3667 6.2 12.6667 5.83333 12.6667H5.16667V13.3333Z" fill="white"/>
</g>
<defs>
<clipPath id="clip0">
<rect width="20" height="20" fill="white"/>
</clipPath>
</defs>
</svg>
