<svg width="40" height="40" viewBox="0 0 40 40" fill="none" xmlns="http://www.w3.org/2000/svg">
<path fill-rule="evenodd" clip-rule="evenodd" d="M3.82812 11.8789V7.83594C3.82812 5.62602 5.62605 3.82812 7.83594 3.82812H11.8789C12.3837 3.82812 12.793 3.41887 12.793 2.91406C12.793 2.40925 12.3837 2 11.8789 2H7.83594C4.61802 2 2 4.61798 2 7.83594V11.8789C2 12.3837 2.40925 12.793 2.91406 12.793C3.41887 12.793 3.82812 12.3837 3.82812 11.8789ZM11.8789 36.1719C12.3837 36.1719 12.793 36.5811 12.793 37.0859C12.793 37.5907 12.3837 38 11.8789 38H7.83594C4.61802 38 2 35.382 2 32.1641V28.1211C2 27.6163 2.40925 27.207 2.91406 27.207C3.41887 27.207 3.82812 27.6163 3.82812 28.1211V32.1641C3.82812 34.374 5.62605 36.1719 7.83594 36.1719H11.8789ZM38 28.1211V32.1641C38 35.382 35.382 38 32.1641 38H28.1211C27.6163 38 27.207 37.5907 27.207 37.0859C27.207 36.5811 27.6163 36.1719 28.1211 36.1719H32.1641C34.374 36.1719 36.1719 34.374 36.1719 32.1641V28.1211C36.1719 27.6163 36.5811 27.207 37.0859 27.207C37.5907 27.207 38 27.6163 38 28.1211ZM38 7.83594V11.8789C38 12.3837 37.5907 12.793 37.0859 12.793C36.5811 12.793 36.1719 12.3837 36.1719 11.8789V7.83594C36.1719 5.62602 34.374 3.82812 32.1641 3.82812H28.1211C27.6163 3.82812 27.207 3.41887 27.207 2.91406C27.207 2.40925 27.6163 2 28.1211 2H32.1641C35.382 2 38 4.61798 38 7.83594ZM26.308 28.6076C26.6931 28.2519 26.7169 27.6513 26.3612 27.2662C26.0054 26.8811 25.4049 26.8573 25.0198 27.213C23.6495 28.4788 21.8668 29.1758 19.9999 29.1758C18.1331 29.1758 16.3503 28.4788 14.98 27.213C14.5949 26.8573 13.9944 26.8811 13.6387 27.2662C13.283 27.6513 13.3068 28.2519 13.6919 28.6076C15.414 30.1982 17.6542 31.0743 19.9999 31.0743C22.3456 31.0743 24.5858 30.1982 26.308 28.6076ZM21.8984 15.5703V22.3203C21.8984 23.6579 20.8102 24.7461 19.4727 24.7461H18.6992C18.175 24.7461 17.75 24.3211 17.75 23.7969C17.75 23.2726 18.175 22.8477 18.6992 22.8477H19.4727C19.7634 22.8477 20 22.6111 20 22.3203V15.5703C20 15.0461 20.425 14.6211 20.9492 14.6211C21.4735 14.6211 21.8984 15.0461 21.8984 15.5703ZM28.4375 18.2246V15.5176C28.4375 15.0225 28.0361 14.6211 27.541 14.6211C27.0459 14.6211 26.6445 15.0225 26.6445 15.5176V18.2246C26.6445 18.7197 27.0459 19.1211 27.541 19.1211C28.0361 19.1211 28.4375 18.7197 28.4375 18.2246ZM11.7734 18.2246C11.7734 18.7197 12.1748 19.1211 12.6699 19.1211C13.165 19.1211 13.5664 18.7197 13.5664 18.2246V15.5176C13.5664 15.0225 13.165 14.6211 12.6699 14.6211C12.1748 14.6211 11.7734 15.0225 11.7734 15.5176V18.2246Z" fill="#0073E4"/>
</svg>
