<svg width="20" height="20" viewBox="0 0 20 20" fill="none" xmlns="http://www.w3.org/2000/svg">
<rect width="20" height="20" rx="3.33333" fill="#FF4800"/>
<path d="M5.74406 5.09806C5.78406 6.01556 6.57756 9.51806 6.57756 9.51806C6.87006 10.2273 7.11856 9.51806 7.11856 9.51806C8.08006 6.64106 6.11681 4.97406 6.11681 4.97406C5.61931 4.68156 5.74381 5.09831 5.74381 5.09831L5.74406 5.09806ZM17.1238 4.59756C17.1238 4.59756 18.0853 5.26656 17.1238 5.39081C17.1238 5.39081 13.5376 5.80756 10.8688 8.30831C10.8688 8.30831 6.86956 11.8108 5.36706 15.6453C5.36706 15.6453 4.86631 15.6453 5.03456 14.8958C5.20281 14.1463 6.20081 10.8521 10.6608 6.80906C10.6608 6.80906 14.9563 2.89031 17.1241 4.59731" fill="white"/>
</svg>
